<?xml version="1.0" encoding="utf-8"?>
<!-- Generator: Adobe Illustrator 26.0.3, SVG Export Plug-In . SVG Version: 6.00 Build 0)  -->
<svg version="1.1" id="Layer_1" xmlns="http://www.w3.org/2000/svg" xmlns:xlink="http://www.w3.org/1999/xlink" x="0px" y="0px"
	 viewBox="0 0 652 166" style="enable-background:new 0 0 652 166;" xml:space="preserve">
<style type="text/css">
	.st0{fill:#D6002A;}
</style>
<g>
	<path id="Wordmark_00000077312863529893942940000018187048437802796979_" class="st0" d="M42,59.8c0,3.7-1.3,7.2-3.9,9.9
		c-3.7,3.7-9.1,4.9-14.1,5.1c-5.5,0.1-11-1.2-15-4.9c-3.1-2.8-5-6.8-5-11h8.8c0,2.2,0.9,4.3,2.5,5.8c2.1,2.1,5.3,2.6,8.1,2.5
		c2.7,0,6-0.4,8-2.5c2.1-2.3,2.9-6.4,0-8.5c-2.9-2.2-7.1-2.1-10.6-2.4c-3.6-0.3-7.4-1-10.4-3.1c-2.9-2.1-4.7-5.3-5.1-8.8
		c-0.4-4.2,1.1-8.1,4-11c3.4-3.4,8.5-4.9,13.3-5c4.9-0.1,10.2,1.2,13.8,4.6c2.8,2.6,4.7,6.2,4.8,10.1h-8.8c-0.1-1.7-0.9-3.4-2.1-4.7
		c-1.8-1.9-4.9-2.6-7.4-2.5c-2.7,0-5.6,0.6-7.5,2.6c-2.3,2.5-2.2,6.8,1,8.4c1.6,0.8,3.6,0.9,5.4,1.1c2,0.2,3.9,0.4,5.9,0.6
		c3.7,0.5,7.4,1.6,10.2,4.2C40.7,52.7,42,56.2,42,59.8z M79.2,74l-3.4-3.8c-5.5,4.9-14.1,6.5-20.9,3.3c-6.5-3-9.9-10.6-7.4-17.4
		c1.3-3.6,4.4-6.3,7.6-8.3c-3.2-3.4-5.5-7.1-5-11.9c0.5-4.2,3.4-7.8,7.3-9.3c4.2-1.6,9.4-1.3,13.3,1.1c3.8,2.3,5.6,6.4,5.2,10.7
		c-0.4,5.4-4.5,9-8.9,11.5l8.2,8.9c0.9-1.7,1-3.9,1.2-5.8c0.2-1.9,0.1-3.9,0.1-5.8h12.2v6.6h-5.5c-0.2,3.7-0.8,7.5-2.9,10.6l8.7,9.5
		L79.2,74L79.2,74z M60,53.1c-2.2,1.4-4.6,2.8-5.4,5.5c-0.7,2.4-0.1,5.2,1.7,7c3.5,3.6,11.1,3.2,14.4-0.5L60,53.1z M68.3,37.7
		c0-2-0.9-3.8-2.8-4.6c-1.9-0.9-4.3-0.6-6,0.6c-1.7,1.2-2.1,3.5-1.5,5.4c0.7,2.3,2.6,4,4.2,5.6C65.1,43.1,68.3,41.4,68.3,37.7z
		 M130.8,41.8c0,4.3-1.4,8.6-4.7,11.4c-3.3,2.8-7.7,3.8-11.9,3.8h-10v16.9h-8.5V26.7h18.5c4.2,0,8.7,1,11.9,3.7
		C129.4,33.2,130.8,37.5,130.8,41.8z M122.1,41.9c0-2.2-0.7-4.4-2.4-5.9c-1.6-1.4-3.9-1.8-6-1.8H104v15.3h9.7c2.1,0,4.4-0.3,6-1.8
		C121.4,46.2,122.1,44,122.1,41.9z M181.2,73.9l-1-5.2c-2.3,4.4-8,6.2-12.6,6.1c-5-0.1-9.8-1.5-13.3-5.3c-5-5.2-6.1-12.3-6.1-19.2
		s1-13.9,6.1-19c7.2-7.2,20.8-7.6,28.1-0.1c2.5,2.6,4.1,5.9,4.3,9.5h-8.8c-0.2-1.7-1-3-2.1-4.3c-3.7-4.3-11.6-3.6-15.3,0.3
		c-3.4,3.6-3.7,9.1-3.7,13.8c0,4.6,0.4,10.1,3.7,13.6c3.6,3.9,11.1,4.1,14.7,0.3c2.5-2.5,3.1-5.8,3.1-9.2H167v-7.1h19.6V74
		C186.8,73.9,181.2,73.9,181.2,73.9z M207.6,73.8c-3.1,0.7-6.5,0.8-9.3-0.9c-2.9-1.7-3.8-4.8-3.8-8V25.7h8.4v37.9
		c0,1.1,0.2,2.4,1.2,3c1.1,0.6,2.4,0.3,3.5,0.3L207.6,73.8L207.6,73.8z M243,56.6c0,4.7-1.1,9.1-4.1,12.8c-5.9,7.2-18.4,7.2-24.3,0
		c-5.6-7.1-5.6-18.5,0-25.6c5.9-7.2,18.4-7.2,24.3,0C241.8,47.5,243,51.9,243,56.6z M234.5,56.6c0-3-0.3-6.4-2.5-8.7
		c-2.7-2.9-7.8-2.9-10.5,0c-2.1,2.3-2.5,5.7-2.5,8.7s0.3,6.4,2.5,8.7c2.7,2.9,7.8,2.9,10.5,0C234.2,63,234.5,59.6,234.5,56.6z
		 M281.4,56.7c0,5.7-1.6,11.5-6.2,15.1c-5,4.2-14.4,4.2-18.1-1.7l-0.5,3.8h-7.2V25.8h8.3v16c1.9-2.4,5.4-3.3,8.3-3.4
		c3.3-0.1,6.6,0.6,9.2,2.8C279.4,44.6,281.4,49.8,281.4,56.7z M273,56.5c0-2.9-0.4-6-2.2-8.4c-1.8-2.1-4.3-3-7-2.6
		c-2.6,0.4-4.5,2.3-5.5,4.7c-1,2.6-1.1,5.7-0.9,8.5c0.3,2.7,0.8,5.4,2.9,7.3c3,2.8,7.9,2.1,10.5-1C272.6,62.6,273,59.4,273,56.5z
		 M318.4,73.5c-3.8,1.7-9.5,1.2-10-3.9c-3.1,5.5-11.4,6.4-16.6,4c-2.9-1.3-5.2-3.7-6-6.9c-0.9-3.2-0.3-6.7,1.8-9.3
		c2.3-2.9,6-4.1,9.5-4.4l10.2-0.7v-2.1c0-1.5-0.4-3.4-1.6-4.4c-1.1-0.9-2.6-1-3.9-1.1c-3.3-0.1-6.5,1.2-6.7,4.9H287
		c0.2-3.1,1.4-6.1,3.9-8.2c2.4-1.9,5.5-2.8,8.6-3c5.8-0.5,12.6,1,14.9,7c0.9,2.2,1,4.6,1,7v12.9c0,1.5,1,2.7,2.7,2.1
		c0.1,0,0.2,0,0.3-0.1V73.5L318.4,73.5z M307.3,58.5l-8.8,0.7c-2.3,0.2-4.7,1.5-5,4.1c-0.2,2.6,1.7,4.5,4.2,4.8
		c2.3,0.3,5-0.4,6.9-1.8c1.9-1.5,2.7-3.7,2.7-6.1L307.3,58.5L307.3,58.5z M336.7,73.8c-3.2,0.7-6.6,0.8-9.4-1
		c-2.8-1.7-3.7-4.8-3.7-7.9V25.7h8.4v37.9c0,1.1,0.2,2.4,1.2,3c1.1,0.6,2.4,0.3,3.5,0.3V73.8L336.7,73.8z"/>
	<rect id="Bar_00000157283523764605165750000014501551157966004398_" x="4" y="3.2" width="332.7" height="8.5"/>
	<g>
		<path d="M38.5,132.4c-0.2,2.2-0.7,4.3-1.6,6.2c-0.9,1.9-2.1,3.6-3.6,5c-1.5,1.4-3.3,2.5-5.3,3.3c-2,0.8-4.2,1.2-6.6,1.2
			c-2.3,0-4.6-0.5-6.8-1.4s-4.2-2.2-5.9-3.9c-1.3-1.3-2.3-2.8-3.1-4.4c-0.7-1.6-1.3-3.2-1.7-4.9c-0.4-1.7-0.6-3.4-0.7-5.2
			c-0.1-1.8-0.2-3.5-0.2-5.3s0.1-3.5,0.2-5.2c0.1-1.8,0.4-3.5,0.7-5.2c0.4-1.7,0.9-3.4,1.7-4.9s1.8-3,3.1-4.3c1.7-1.7,3.6-3,5.9-3.9
			c2.2-0.9,4.5-1.4,6.8-1.4c2.4,0,4.6,0.4,6.6,1.2c2,0.8,3.8,1.9,5.3,3.3s2.7,3.1,3.6,5c0.9,1.9,1.4,4,1.6,6.2h-3.7
			c-0.1-1.8-0.6-3.4-1.3-4.9s-1.7-2.8-2.8-3.9c-1.2-1.1-2.5-1.9-4.1-2.5s-3.3-0.9-5.2-0.9c-2.2,0-4.1,0.4-5.7,1.1s-3.1,1.7-4.4,3.1
			c-1.1,1.1-1.9,2.4-2.5,3.8s-1.1,2.9-1.4,4.4s-0.5,3.1-0.5,4.6c-0.1,1.6-0.1,3.1-0.1,4.5c0,1.5,0,3,0.1,4.5
			c0.1,1.6,0.3,3.1,0.6,4.7c0.3,1.5,0.8,3,1.4,4.4c0.6,1.4,1.5,2.7,2.5,3.8c2.7,2.8,6,4.1,10.1,4.1c1.9,0,3.6-0.3,5.2-0.9
			s3-1.4,4.1-2.5s2.1-2.4,2.8-3.9s1.2-3.1,1.3-4.9L38.5,132.4L38.5,132.4z"/>
		<path d="M75.6,130.2c0,2.9-0.4,5.5-1.1,7.8c-0.7,2.3-2,4.3-3.7,6.1c-1.2,1.2-2.6,2.2-4.2,2.9c-1.7,0.8-3.5,1.2-5.7,1.2
			s-4-0.4-5.7-1.2c-1.7-0.8-3.1-1.7-4.2-2.9c-1.8-1.8-3-3.8-3.7-6.1c-0.7-2.3-1.1-4.9-1.1-7.8c0-2.9,0.4-5.5,1.1-7.8
			c0.7-2.3,2-4.3,3.7-6.1c1.2-1.2,2.6-2.2,4.2-2.9c1.7-0.8,3.5-1.2,5.7-1.2s4,0.4,5.7,1.2c1.7,0.8,3.1,1.7,4.2,2.9
			c1.8,1.8,3,3.8,3.7,6.1C75.2,124.7,75.6,127.3,75.6,130.2z M72.1,130.2c0-2.2-0.2-4.3-0.7-6.3s-1.5-3.7-3.1-5.3
			c-0.9-0.9-2-1.6-3.2-2.2c-1.2-0.6-2.7-0.8-4.3-0.8s-3.1,0.3-4.3,0.8s-2.3,1.3-3.2,2.2c-1.5,1.6-2.6,3.4-3.1,5.3s-0.7,4-0.7,6.3
			c0,2.2,0.2,4.3,0.7,6.3c0.5,1.9,1.5,3.7,3.1,5.3c0.9,0.9,2,1.6,3.2,2.2c1.2,0.5,2.7,0.8,4.3,0.8s3.1-0.3,4.3-0.8
			c1.2-0.5,2.3-1.3,3.2-2.2c1.5-1.6,2.6-3.4,3.1-5.3C71.8,134.5,72.1,132.4,72.1,130.2z"/>
		<path d="M127.4,147.2V125c0-2.9-0.6-5.3-1.8-6.9c-1.2-1.7-3.3-2.5-6.3-2.5c-1.3,0-2.5,0.2-3.4,0.6c-1,0.4-1.8,1-2.6,1.7
			c-1.3,1.3-2.3,2.8-3,4.5s-1,3.6-1,5.6v19.2h-3.5V125c0-2.9-0.6-5.3-1.9-6.9c-1.2-1.7-3.3-2.5-6.3-2.5c-1.3,0-2.5,0.2-3.4,0.6
			c-1,0.4-1.8,1-2.6,1.7c-1.5,1.5-2.6,3.3-3.2,5.4c-0.6,2.2-0.9,4.5-0.9,6.9v17h-3.4v-34h3l0.4,5.8c0.9-1.9,2.2-3.6,4-4.8
			c1.8-1.3,3.9-1.9,6.3-1.9c3,0,5.4,0.7,7.1,2s3,3.1,3.6,5.3c0.9-2.1,2.3-3.9,4-5.3c1.8-1.4,4.1-2.1,6.9-2.1c2,0,3.7,0.3,5.1,0.9
			s2.6,1.5,3.5,2.6s1.6,2.4,2,3.9c0.4,1.5,0.6,3.2,0.6,5v22.6H127.4L127.4,147.2z"/>
		<path d="M184.6,147.2V125c0-2.9-0.6-5.3-1.8-6.9c-1.2-1.7-3.3-2.5-6.3-2.5c-1.3,0-2.5,0.2-3.4,0.6c-1,0.4-1.8,1-2.6,1.7
			c-1.3,1.3-2.3,2.8-3,4.5s-1,3.6-1,5.6v19.2H163V125c0-2.9-0.6-5.3-1.9-6.9c-1.2-1.7-3.3-2.5-6.3-2.5c-1.3,0-2.5,0.2-3.4,0.6
			c-1,0.4-1.8,1-2.6,1.7c-1.5,1.5-2.6,3.3-3.2,5.4c-0.6,2.2-0.9,4.5-0.9,6.9v17h-3.4v-34h3l0.4,5.8c0.9-1.9,2.2-3.6,4-4.8
			c1.8-1.3,3.9-1.9,6.3-1.9c3,0,5.4,0.7,7.1,2c1.7,1.3,3,3.1,3.6,5.3c0.9-2.1,2.3-3.9,4-5.3c1.8-1.4,4.1-2.1,6.9-2.1
			c2,0,3.7,0.3,5.1,0.9s2.6,1.5,3.5,2.6s1.6,2.4,2,3.9s0.6,3.2,0.6,5v22.6H184.6L184.6,147.2z"/>
		<path d="M225.8,130.2c0,2.9-0.4,5.5-1.1,7.8c-0.7,2.3-2,4.3-3.7,6.1c-1.2,1.2-2.6,2.2-4.2,2.9c-1.7,0.8-3.5,1.2-5.7,1.2
			c-2.1,0-4-0.4-5.7-1.2c-1.7-0.8-3.1-1.7-4.2-2.9c-1.8-1.8-3-3.8-3.7-6.1c-0.7-2.3-1.1-4.9-1.1-7.8c0-2.9,0.4-5.5,1.1-7.8
			c0.7-2.3,2-4.3,3.7-6.1c1.2-1.2,2.6-2.2,4.2-2.9c1.7-0.8,3.5-1.2,5.7-1.2c2.1,0,4,0.4,5.7,1.2c1.7,0.8,3.1,1.7,4.2,2.9
			c1.8,1.8,3,3.8,3.7,6.1C225.5,124.7,225.8,127.3,225.8,130.2z M222.4,130.2c0-2.2-0.2-4.3-0.7-6.3c-0.5-1.9-1.5-3.7-3.1-5.3
			c-0.9-0.9-2-1.6-3.2-2.2s-2.7-0.8-4.3-0.8s-3.1,0.3-4.3,0.8s-2.3,1.3-3.2,2.2c-1.5,1.6-2.6,3.4-3.1,5.3s-0.7,4-0.7,6.3
			c0,2.2,0.2,4.3,0.7,6.3c0.5,1.9,1.5,3.7,3.1,5.3c0.9,0.9,2,1.6,3.2,2.2c1.2,0.5,2.7,0.8,4.3,0.8s3.1-0.3,4.3-0.8s2.3-1.3,3.2-2.2
			c1.5-1.6,2.6-3.4,3.1-5.3C222.1,134.5,222.4,132.4,222.4,130.2z"/>
		<path d="M259.4,147.2l-0.4-6c-0.5,1-1.1,2-1.9,2.9s-1.7,1.6-2.7,2.2c-1,0.6-2.1,1-3.2,1.4c-1.2,0.3-2.3,0.5-3.4,0.5
			c-1.9,0-3.7-0.3-5.1-0.9c-1.5-0.6-2.8-1.3-3.9-2.3c-1.9-1.7-3.3-3.8-4.2-6.4c-0.9-2.6-1.4-5.3-1.4-8.3c0-2.8,0.4-5.5,1.3-8
			c0.9-2.5,2.2-4.7,4-6.4c1.1-1.1,2.5-1.9,4-2.6c1.5-0.6,3.3-1,5.3-1c1.2,0,2.4,0.2,3.6,0.5c1.2,0.3,2.2,0.8,3.2,1.4
			s1.9,1.3,2.7,2.1c0.8,0.8,1.4,1.7,1.9,2.7V98.1h3.4v49.1H259.4L259.4,147.2z M259.1,130.2c0-2.5-0.3-4.8-1-6.8
			c-0.6-2-1.7-3.7-3.3-5.1c-0.9-0.8-1.9-1.5-3-1.9c-1.2-0.5-2.5-0.7-4.1-0.7s-3,0.3-4.1,0.8c-1.2,0.5-2.2,1.3-3.1,2.2
			c-1.3,1.5-2.3,3.2-2.9,5.2c-0.6,2-0.9,4.1-0.9,6.3c0,2.4,0.4,4.7,1.1,6.9c0.7,2.1,1.8,3.9,3.4,5.3c0.9,0.8,1.8,1.4,2.9,1.8
			c1.1,0.4,2.4,0.6,3.8,0.6c1.5,0,2.8-0.2,3.9-0.7c1.1-0.5,2.1-1.2,3-2c1.5-1.5,2.7-3.3,3.3-5.3
			C258.7,134.8,259.1,132.6,259.1,130.2z"/>
		<path d="M273.8,103.8V99h4.8v4.8H273.8z M274.4,147.2v-34h3.6v34H274.4z"/>
		<path d="M307.1,146.9c-1,0.2-1.9,0.4-2.8,0.6s-1.9,0.2-2.8,0.2c-3.2,0-5.4-0.9-6.8-2.8c-1.3-1.8-2-4.2-2-7.2v-21.4h-6.8v-3.1h6.8
			v-9.4l3.4-0.8v10.2h10.5v3.1h-10.5v21.3c0,1,0.1,1.9,0.2,2.8c0.2,0.8,0.5,1.6,0.9,2.2s1,1.1,1.7,1.4s1.7,0.5,2.8,0.5
			c0.9,0,1.8-0.1,2.7-0.2c0.9-0.1,1.8-0.3,2.7-0.4L307.1,146.9L307.1,146.9z"/>
		<path d="M327.7,154.5c-0.9,2.2-2,3.9-3.5,5.1s-3.4,1.8-5.7,1.8c-0.7,0-1.3,0-1.8-0.1s-1-0.1-1.4-0.2c-0.5-0.1-0.8-0.2-1.1-0.3V158
			c0.5,0.1,0.9,0.2,1.4,0.2c0.8,0.1,1.7,0.2,2.7,0.2c1.6,0,2.9-0.5,3.9-1.4c1-1,1.7-2.2,2.3-3.6l2.2-5.6l-13.9-34.5h3.7l11.9,30.2
			l11.4-30.2h3.7L327.7,154.5z"/>
		<path d="M369,147.2v-24.1V99h1.8h1.8v48.2h-1.8H369z"/>
		<path d="M408.3,147.2V125c0-3-0.7-5.3-2-6.9c-1.4-1.6-3.6-2.4-6.7-2.4c-2.1,0-3.9,0.4-5.3,1.3c-1.5,0.8-2.6,1.9-3.5,3.3
			s-1.5,2.9-1.9,4.7c-0.4,1.7-0.6,3.5-0.6,5.3v17h-3.4v-34h3l0.4,6.2c0.5-1.1,1.1-2.1,1.9-2.9c0.8-0.9,1.7-1.6,2.8-2.2
			c1-0.6,2.1-1.1,3.3-1.4c1.2-0.3,2.4-0.5,3.5-0.5c3.9,0,6.9,1.1,8.9,3.3c2,2.2,3,5.3,3,9.1v22.3H408.3L408.3,147.2z"/>
		<path d="M448,137.9c0,2.4-0.8,4.5-2.3,6.3c-1.2,1.4-2.8,2.4-4.7,3.1c-1.9,0.7-4,1-6.3,1s-4.4-0.4-6.3-1.1
			c-1.9-0.7-3.5-1.8-4.8-3.3c-1-1.1-1.6-2.2-2.1-3.2c-0.4-1-0.7-2.3-0.8-3.7h3.5c0.2,2,1,3.7,2.5,5.2c1,1,2.2,1.6,3.5,2.1
			c1.4,0.4,2.9,0.6,4.5,0.6c1.8,0,3.3-0.2,4.7-0.6c1.4-0.4,2.5-1,3.3-1.9c0.6-0.6,1.1-1.3,1.4-1.9c0.3-0.6,0.4-1.4,0.4-2.4
			c0-1.5-0.5-2.9-1.6-4c-1.1-1.2-2.6-1.9-4.7-2.1l-6.6-0.9c-1.4-0.2-2.8-0.5-4.2-1c-1.4-0.5-2.5-1.3-3.5-2.4
			c-1.3-1.5-1.9-3.3-1.9-5.4c0-1.4,0.3-2.6,0.8-3.7s1.2-2.1,2.1-2.9c1.2-1.1,2.6-1.9,4.2-2.4s3.3-0.7,5.1-0.7c2,0,4,0.3,5.8,1
			s3.3,1.7,4.5,3c0.8,0.9,1.4,1.9,1.8,3c0.5,1.1,0.7,2.2,0.7,3.3h-3.4c-0.1-0.5-0.3-1.2-0.5-2s-0.6-1.5-1.2-2.1
			c-0.8-0.9-1.8-1.6-3.1-2.2c-1.3-0.5-2.9-0.8-4.6-0.8c-2.6,0-4.7,0.5-6.1,1.6c-1.8,1.3-2.7,2.8-2.7,4.7c0,1.5,0.5,2.7,1.4,3.7
			s2.7,1.7,5.2,2l6.5,0.9c1.6,0.2,3,0.6,4.1,1.3c1.2,0.6,2.2,1.4,2.9,2.2c0.8,0.9,1.3,1.8,1.7,2.8C447.8,135.8,448,136.8,448,137.9z
			"/>
		<path d="M456.8,103.8V99h4.8v4.8H456.8z M457.4,147.2v-34h3.6v34H457.4z"/>
		<path d="M501.6,152.4c0,1.3-0.2,2.5-0.7,3.6s-1.1,2-1.9,2.8c-1.5,1.5-3.4,2.5-5.8,3.1s-5,0.9-7.7,0.9c-2.6,0-5-0.3-7.2-0.9
			s-4-1.6-5.5-3.1c-0.8-0.8-1.4-1.7-1.8-2.7s-0.6-2.2-0.6-3.5c0-1.6,0.5-3.2,1.4-4.6s2.2-2.6,3.7-3.3c-1.2-0.4-2.2-1.1-3-2.2
			c-0.8-1.1-1.3-2.2-1.3-3.4c0-1.4,0.4-2.7,1.1-3.7s1.7-1.9,3-2.7c-1-1-1.9-2.3-2.5-3.6c-0.6-1.3-0.9-3-0.9-4.7c0-1.8,0.3-3.5,1-4.9
			c0.7-1.5,1.6-2.7,2.7-3.8c1.1-1,2.5-1.8,4-2.4s3.2-0.8,5-0.8c3,0,5.6,0.8,8,2.3c0.5-1.4,1.3-2.6,2.6-3.4c1.3-0.8,2.7-1.2,4.2-1.2
			c0.2,0,0.4,0,0.6,0.1c0.2,0,0.4,0.1,0.6,0.1v2.9c-0.2,0-0.4,0-0.6-0.1c-0.2,0-0.4-0.1-0.6-0.1c-1.2,0-2.3,0.3-3.1,1
			c-0.8,0.6-1.4,1.5-1.6,2.7c0.9,1,1.5,2.1,2,3.4s0.7,2.7,0.7,4.2c0,1.9-0.3,3.5-1,5s-1.6,2.7-2.8,3.7s-2.5,1.8-4.1,2.3
			s-3.2,0.8-5,0.8c-2.5,0-4.8-0.5-6.8-1.6c-0.9,0.4-1.7,0.9-2.4,1.6c-0.7,0.7-1,1.6-1,2.6c0,0.8,0.2,1.5,0.7,2s1,0.9,1.7,1.2
			c0.6,0.2,1.4,0.4,2.3,0.4c0.9,0.1,1.6,0.1,2.3,0.1h7.4c2.2,0,4.1,0.3,5.8,0.8s3.1,1.4,4.2,2.5c0.8,0.8,1.5,1.7,2,2.8
			C501.4,149.5,501.6,150.9,501.6,152.4z M498.2,152.4c0-1-0.1-1.8-0.4-2.4c-0.3-0.7-0.7-1.3-1.2-1.8c-1.6-1.7-4.3-2.5-8.2-2.5h-9
			c-1.5,0.4-2.8,1.1-3.9,2.3c-1.2,1.2-1.7,2.7-1.7,4.7c0,0.9,0.2,1.7,0.5,2.4c0.3,0.7,0.8,1.3,1.3,1.8c0.6,0.6,1.3,1.1,2.1,1.4
			c0.8,0.3,1.7,0.6,2.6,0.8c0.9,0.2,1.8,0.3,2.7,0.4c0.9,0.1,1.8,0.1,2.7,0.1s1.8,0,2.8-0.1s2-0.2,3-0.4c1-0.2,1.9-0.5,2.8-0.9
			s1.6-0.9,2.3-1.6c0.5-0.5,0.9-1.1,1.3-1.8C498,154,498.2,153.2,498.2,152.4z M494.2,124.2c0-1.4-0.2-2.6-0.7-3.7s-1.2-2-2-2.8
			s-1.8-1.4-3-1.8s-2.4-0.6-3.7-0.6c-1.3,0-2.5,0.2-3.7,0.6s-2.2,1-3,1.8s-1.5,1.7-2,2.8s-0.7,2.3-0.7,3.7s0.2,2.6,0.7,3.7
			s1.1,2,2,2.8c0.9,0.8,1.8,1.3,3,1.7s2.4,0.6,3.7,0.6c1.3,0,2.5-0.2,3.7-0.6c1.2-0.4,2.2-1,3-1.7c0.8-0.7,1.5-1.7,2-2.8
			S494.2,125.6,494.2,124.2z"/>
		<path d="M532.6,147.2V125c0-3-0.7-5.3-2-7c-1.4-1.7-3.6-2.5-6.7-2.5c-2.1,0-3.9,0.4-5.3,1.3c-1.5,0.8-2.6,1.9-3.5,3.3
			s-1.5,3-1.9,4.7c-0.4,1.8-0.6,3.6-0.6,5.4v17h-3.4V98.1h3.4v21.4c0.5-1.1,1.1-2.1,1.9-3c0.8-0.9,1.7-1.6,2.8-2.2
			c1-0.6,2.1-1.1,3.3-1.4s2.4-0.5,3.5-0.5c3.9,0,6.9,1.1,8.9,3.3c2,2.2,3,5.3,3,9.1v22.4H532.6L532.6,147.2z"/>
		<path d="M564.2,146.9c-1,0.2-1.9,0.4-2.8,0.6c-0.9,0.2-1.9,0.2-2.8,0.2c-3.2,0-5.4-0.9-6.8-2.8c-1.3-1.8-2-4.2-2-7.2v-21.4H543
			v-3.1h6.8v-9.4l3.4-0.8v10.2h10.5v3.1h-10.5v21.3c0,1,0.1,1.9,0.2,2.8c0.2,0.8,0.5,1.6,0.9,2.2s1,1.1,1.7,1.4s1.7,0.5,2.8,0.5
			c0.9,0,1.8-0.1,2.7-0.2c0.9-0.1,1.8-0.3,2.7-0.4L564.2,146.9L564.2,146.9z"/>
		<path d="M597,137.9c0,2.4-0.8,4.5-2.3,6.3c-1.2,1.4-2.8,2.4-4.7,3.1s-4,1-6.3,1s-4.4-0.4-6.3-1.1c-1.9-0.7-3.5-1.8-4.8-3.3
			c-1-1.1-1.6-2.2-2.1-3.2c-0.4-1-0.7-2.3-0.8-3.7h3.5c0.2,2,1,3.7,2.5,5.2c1,1,2.2,1.6,3.5,2.1c1.4,0.4,2.9,0.6,4.5,0.6
			c1.8,0,3.3-0.2,4.7-0.6c1.4-0.4,2.5-1,3.3-1.9c0.6-0.6,1.1-1.3,1.4-1.9c0.3-0.6,0.4-1.4,0.4-2.4c0-1.5-0.5-2.9-1.6-4
			c-1.1-1.2-2.6-1.9-4.7-2.1l-6.6-0.9c-1.4-0.2-2.8-0.5-4.2-1s-2.5-1.3-3.5-2.4c-1.3-1.5-1.9-3.3-1.9-5.4c0-1.4,0.3-2.6,0.8-3.7
			s1.2-2.1,2.1-2.9c1.2-1.1,2.6-1.9,4.2-2.4c1.6-0.5,3.3-0.7,5.1-0.7c2,0,4,0.3,5.8,1s3.3,1.7,4.5,3c0.8,0.9,1.4,1.9,1.8,3
			c0.5,1.1,0.7,2.2,0.7,3.3h-3.4c-0.1-0.5-0.3-1.2-0.5-2s-0.6-1.5-1.2-2.1c-0.8-0.9-1.8-1.6-3.1-2.2c-1.3-0.5-2.9-0.8-4.6-0.8
			c-2.6,0-4.7,0.5-6.1,1.6c-1.8,1.3-2.7,2.8-2.7,4.7c0,1.5,0.5,2.7,1.4,3.7s2.7,1.7,5.2,2l6.5,0.9c1.6,0.2,3,0.6,4.1,1.3
			c1.2,0.6,2.2,1.4,2.9,2.2c0.8,0.9,1.3,1.8,1.7,2.8C596.8,135.8,597,136.8,597,137.9z"/>
	</g>
</g>
</svg>
